<svg width="1024" height="1024" viewBox="0 0 1024 1024" fill="none" xmlns="http://www.w3.org/2000/svg">
<rect width="1024" height="1024" fill="black"/>
<mask id="path-1-inside-1_12_60" fill="white">
<path d="M492 628H556V842H492V628Z"/>
</mask>
<path d="M492 628H556V842H492V628Z" fill="#6C3FFF"/>
<path d="M556 628H548V842H556H564V628H556ZM492 842H500V628H492H484V842H492Z" fill="black" mask="url(#path-1-inside-1_12_60)"/>
<mask id="path-3-inside-2_12_60" fill="white">
<path d="M254 641.255L299.255 596L515.763 812.508L470.508 857.763L254 641.255Z"/>
</mask>
<path d="M254 641.255L299.255 596L515.763 812.508L470.508 857.763L254 641.255Z" fill="#F59E0B"/>
<path d="M299.255 596L293.598 601.657L510.106 818.165L515.763 812.508L521.42 806.851L304.912 590.343L299.255 596ZM470.508 857.763L476.165 852.106L259.657 635.598L254 641.255L248.343 646.912L464.851 863.42L470.508 857.763Z" fill="black" mask="url(#path-3-inside-2_12_60)"/>
<mask id="path-5-inside-3_12_60" fill="white">
<path d="M492 517H556V628H492V517Z"/>
</mask>
<path d="M492 517H556V628H492V517Z" fill="#F59E0B"/>
<path d="M556 517H548V628H556H564V517H556ZM492 628H500V517H492H484V628H492Z" fill="black" mask="url(#path-5-inside-3_12_60)"/>
<mask id="path-7-inside-4_12_60" fill="white">
<path d="M319.105 483.069L364.214 437.959L553.636 627.381L508.526 672.49L319.105 483.069Z"/>
</mask>
<path d="M319.105 483.069L364.214 437.959L553.636 627.381L508.526 672.49L319.105 483.069Z" fill="#6C3FFF"/>
<path d="M364.214 437.959L358.557 443.616L547.979 633.038L553.636 627.381L559.293 621.724L369.871 432.303L364.214 437.959Z" fill="black" mask="url(#path-7-inside-4_12_60)"/>
<mask id="path-9-inside-5_12_60" fill="white">
<path d="M492 250H556V514H492V250Z"/>
</mask>
<path d="M492 250H556V514H492V250Z" fill="#6C3FFF"/>
<path d="M556 250H548V514H556H564V250H556ZM492 514H500V250H492H484V514H492Z" fill="black" mask="url(#path-9-inside-5_12_60)"/>
<mask id="path-11-inside-6_12_60" fill="white">
<path d="M705.336 306L748.372 349.036L537.036 560.372L494 517.336L705.336 306Z"/>
</mask>
<path d="M705.336 306L748.372 349.036L537.036 560.372L494 517.336L705.336 306Z" fill="#F59E0B"/>
<path d="M705.336 306L710.993 300.343L705.336 294.686L699.679 300.343L705.336 306ZM705.336 306L699.679 311.657L742.715 354.692L748.372 349.036L754.029 343.379L710.993 300.343L705.336 306ZM494 517.336L499.657 522.993L710.993 311.657L705.336 306L699.679 300.343L488.343 511.679L494 517.336Z" fill="black" mask="url(#path-11-inside-6_12_60)"/>
<mask id="path-14-outside-7_12_60" maskUnits="userSpaceOnUse" x="244" y="562" width="144" height="112" fill="black">
<rect fill="white" x="244" y="562" width="144" height="112"/>
<path d="M252 574C252 571.791 253.791 570 256 570H376C378.209 570 380 571.791 380 574V662C380 664.209 378.209 666 376 666H256C253.791 666 252 664.209 252 662V574Z"/>
</mask>
<path d="M252 574C252 571.791 253.791 570 256 570H376C378.209 570 380 571.791 380 574V662C380 664.209 378.209 666 376 666H256C253.791 666 252 664.209 252 662V574Z" fill="#F59E0B"/>
<path d="M256 570V578H376V570V562H256V570ZM380 574H372V662H380H388V574H380ZM376 666V658H256V666V674H376V666ZM252 662H260V574H252H244V662H252ZM256 666V658C258.209 658 260 659.791 260 662H252H244C244 668.627 249.373 674 256 674V666ZM380 662H372C372 659.791 373.791 658 376 658V666V674C382.627 674 388 668.627 388 662H380ZM376 570V578C373.791 578 372 576.209 372 574H380H388C388 567.373 382.627 562 376 562V570ZM256 570V562C249.373 562 244 567.373 244 574H252H260C260 576.209 258.209 578 256 578V570Z" fill="black" mask="url(#path-14-outside-7_12_60)"/>
<mask id="path-16-inside-8_12_60" fill="white">
<path d="M731.935 612.682L777.189 657.936L577.255 857.871L532 812.616L731.935 612.682Z"/>
</mask>
<path d="M731.935 612.682L777.189 657.936L577.255 857.871L532 812.616L731.935 612.682Z" fill="#F59E0B"/>
<path d="M777.189 657.936L771.533 652.279L571.598 852.214L577.255 857.871L582.912 863.528L782.846 663.593L777.189 657.936ZM532 812.616L537.657 818.273L737.591 618.338L731.935 612.682L726.278 607.025L526.343 806.959L532 812.616Z" fill="black" mask="url(#path-16-inside-8_12_60)"/>
<mask id="path-19-outside-9_12_60" maskUnits="userSpaceOnUse" x="452" y="794" width="144" height="112" fill="black">
<rect fill="white" x="452" y="794" width="144" height="112"/>
<path d="M460 806C460 803.791 461.791 802 464 802H584C586.209 802 588 803.791 588 806V894C588 896.209 586.209 898 584 898H464C461.791 898 460 896.209 460 894V806Z"/>
</mask>
<path d="M460 806C460 803.791 461.791 802 464 802H584C586.209 802 588 803.791 588 806V894C588 896.209 586.209 898 584 898H464C461.791 898 460 896.209 460 894V806Z" fill="#6C3FFF"/>
<path d="M464 802V810H584V802V794H464V802ZM588 806H580V894H588H596V806H588ZM584 898V890H464V898V906H584V898ZM460 894H468V806H460H452V894H460ZM464 898V890C466.209 890 468 891.791 468 894H460H452C452 900.627 457.373 906 464 906V898ZM588 894H580C580 891.791 581.791 890 584 890V898V906C590.627 906 596 900.627 596 894H588ZM584 802V810C581.791 810 580 808.209 580 806H588H596C596 799.373 590.627 794 584 794V802ZM464 802V794C457.373 794 452 799.373 452 806H460H468C468 808.209 466.209 810 464 810V802Z" fill="black" mask="url(#path-19-outside-9_12_60)"/>
<mask id="path-21-inside-10_12_60" fill="white">
<path d="M312 406H376V484H312V406Z"/>
</mask>
<path d="M312 406H376V484H312V406Z" fill="#6C3FFF"/>
<path d="M312 484H320V406H312H304V484H312Z" fill="black" mask="url(#path-21-inside-10_12_60)"/>
<mask id="path-24-outside-11_12_60" maskUnits="userSpaceOnUse" x="612" y="274" width="144" height="112" fill="black">
<rect fill="white" x="612" y="274" width="144" height="112"/>
<path d="M620 286C620 283.791 621.791 282 624 282H744C746.209 282 748 283.791 748 286V374C748 376.209 746.209 378 744 378H624C621.791 378 620 376.209 620 374V286Z"/>
</mask>
<path d="M620 286C620 283.791 621.791 282 624 282H744C746.209 282 748 283.791 748 286V374C748 376.209 746.209 378 744 378H624C621.791 378 620 376.209 620 374V286Z" fill="#F59E0B"/>
<path d="M624 282V290H744V282V274H624V282ZM748 286H740V374H748H756V286H748ZM744 378V370H624V378V386H744V378ZM620 374H628V286H620H612V374H620ZM624 378V370C626.209 370 628 371.791 628 374H620H612C612 380.627 617.373 386 624 386V378ZM748 374H740C740 371.791 741.791 370 744 370V378V386C750.627 386 756 380.627 756 374H748ZM744 282V290C741.791 290 740 288.209 740 286H748H756C756 279.373 750.627 274 744 274V282ZM624 282V274C617.373 274 612 279.373 612 286H620H628C628 288.209 626.209 290 624 290V282Z" fill="black" mask="url(#path-24-outside-11_12_60)"/>
<mask id="path-27-outside-12_12_60" maskUnits="userSpaceOnUse" x="660" y="562" width="144" height="112" fill="black">
<rect fill="white" x="660" y="562" width="144" height="112"/>
<path d="M668 574C668 571.791 669.791 570 672 570H792C794.209 570 796 571.791 796 574V662C796 664.209 794.209 666 792 666H672C669.791 666 668 664.209 668 662V574Z"/>
</mask>
<path d="M668 574C668 571.791 669.791 570 672 570H792C794.209 570 796 571.791 796 574V662C796 664.209 794.209 666 792 666H672C669.791 666 668 664.209 668 662V574Z" fill="#F59E0B"/>
<path d="M672 570V578H792V570V562H672V570ZM796 574H788V662H796H804V574H796ZM792 666V658H672V666V674H792V666ZM668 662H676V574H668H660V662H668ZM672 666V658C674.209 658 676 659.791 676 662H668H660C660 668.627 665.373 674 672 674V666ZM796 662H788C788 659.791 789.791 658 792 658V666V674C798.627 674 804 668.627 804 662H796ZM792 570V578C789.791 578 788 576.209 788 574H796H804C804 567.373 798.627 562 792 562V570ZM672 570V562C665.373 562 660 567.373 660 574H668H676C676 576.209 674.209 578 672 578V570Z" fill="black" mask="url(#path-27-outside-12_12_60)"/>
<mask id="path-30-outside-13_12_60" maskUnits="userSpaceOnUse" x="274" y="306" width="144" height="112" fill="black">
<rect fill="white" x="274" y="306" width="144" height="112"/>
<path d="M282 318C282 315.791 283.791 314 286 314H406C408.209 314 410 315.791 410 318V406C410 408.209 408.209 410 406 410H286C283.791 410 282 408.209 282 406V318Z"/>
</mask>
<path d="M282 318C282 315.791 283.791 314 286 314H406C408.209 314 410 315.791 410 318V406C410 408.209 408.209 410 406 410H286C283.791 410 282 408.209 282 406V318Z" fill="#6C3FFF"/>
<path d="M286 314V322H406V314V306H286V314ZM410 318H402V406H410H418V318H410ZM406 410V402H286V410V418H406V410ZM282 406H290V318H282H274V406H282ZM286 410V402C288.209 402 290 403.791 290 406H282H274C274 412.627 279.373 418 286 418V410ZM410 406H402C402 403.791 403.791 402 406 402V410V418C412.627 418 418 412.627 418 406H410ZM406 314V322C403.791 322 402 320.209 402 318H410H418C418 311.373 412.627 306 406 306V314ZM286 314V306C279.373 306 274 311.373 274 318H282H290C290 320.209 288.209 322 286 322V314Z" fill="black" mask="url(#path-30-outside-13_12_60)"/>
<mask id="path-33-outside-14_12_60" maskUnits="userSpaceOnUse" x="450" y="158" width="144" height="112" fill="black">
<rect fill="white" x="450" y="158" width="144" height="112"/>
<path d="M458 170C458 167.791 459.791 166 462 166H582C584.209 166 586 167.791 586 170V258C586 260.209 584.209 262 582 262H462C459.791 262 458 260.209 458 258V170Z"/>
</mask>
<path d="M458 170C458 167.791 459.791 166 462 166H582C584.209 166 586 167.791 586 170V258C586 260.209 584.209 262 582 262H462C459.791 262 458 260.209 458 258V170Z" fill="#6C3FFF"/>
<path d="M462 166V174H582V166V158H462V166ZM586 170H578V258H586H594V170H586ZM582 262V254H462V262V270H582V262ZM458 258H466V170H458H450V258H458ZM462 262V254C464.209 254 466 255.791 466 258H458H450C450 264.627 455.373 270 462 270V262ZM586 258H578C578 255.791 579.791 254 582 254V262V270C588.627 270 594 264.627 594 258H586ZM582 166V174C579.791 174 578 172.209 578 170H586H594C594 163.373 588.627 158 582 158V166ZM462 166V158C455.373 158 450 163.373 450 170H458H466C466 172.209 464.209 174 462 174V166Z" fill="black" mask="url(#path-33-outside-14_12_60)"/>
</svg>
